<svg width="16" height="16" viewBox="0 0 16 16" fill="none" xmlns="http://www.w3.org/2000/svg">
<path fill-rule="evenodd" clip-rule="evenodd" d="M10 5L11.5434 3.45661C11.451 3.41981 11.362 3.37208 11.279 3.31398C10.9392 3.0762 10.5737 2.87551 10.1887 2.71604C9.49479 2.42862 8.75107 2.28068 8 2.28068C7.24893 2.28068 6.50521 2.42862 5.81131 2.71604C5.42631 2.87551 5.06082 3.0762 4.72101 3.31398C4.2685 3.63061 3.63925 3.63925 3.24873 3.24872L3.05025 3.05025C2.65973 2.65973 2.65639 2.0208 3.09256 1.68201C3.65599 1.24437 4.27664 0.883129 4.93853 0.608963C5.90914 0.206926 6.94943 0 8 0C9.05058 0 10.0909 0.206926 11.0615 0.608964C11.7234 0.88313 12.344 1.24437 12.9074 1.68201C12.9877 1.74435 13.0531 1.81685 13.1039 1.8961L15 0V5H10ZM12.9074 14.318C13.3436 13.9792 13.3403 13.3403 12.9497 12.9497L12.7513 12.7513C12.3608 12.3608 11.7315 12.3694 11.279 12.686C10.8167 13.0095 10.3075 13.2639 9.76737 13.4394C8.90897 13.7183 7.99676 13.7901 7.1053 13.6489C6.21385 13.5077 5.36846 13.1575 4.63827 12.627C4.20265 12.3105 3.81541 11.9352 3.48686 11.5131L5 10L0 10V15L1.86529 13.1347C2.2847 13.6358 2.76539 14.0854 3.29772 14.4721C4.31909 15.2142 5.50158 15.704 6.74852 15.9015C7.99546 16.099 9.27144 15.9986 10.4721 15.6085C11.3548 15.3216 12.1784 14.8843 12.9074 14.318ZM6 11L11 8L6 5V11Z" fill="#e0e0e0"/>
</svg>
