<svg width="16" height="16" viewBox="0 0 16 16" fill="none" xmlns="http://www.w3.org/2000/svg">
<path fill-rule="evenodd" clip-rule="evenodd" d="M13.7071 3.70689C14.0976 3.31637 14.0976 2.6832 13.7071 2.29268C13.3166 1.90216 12.6834 1.90216 12.2929 2.29268L11.4765 3.10904C11.1228 2.8571 10.7405 2.6426 10.3355 2.4713C9.61764 2.16768 8.82843 1.99979 8 1.99979C4.68629 1.99979 2 4.68608 2 7.99979C2 11.3135 4.68629 13.9998 8 13.9998C11.3008 13.9998 13.979 11.3344 13.9999 8.03859L14 7.99979C14 6.70396 13.5892 5.50407 12.8907 4.52325L13.7071 3.70689ZM10.032 4.55361L9.29289 5.29268C8.90237 5.6832 8.90237 6.31637 9.29289 6.70689C9.68342 7.09742 10.3166 7.09742 10.7071 6.70689L11.4462 5.96782C11.7981 6.56333 12 7.25798 12 7.99979C12 10.2089 10.2091 11.9998 8 11.9998C5.79086 11.9998 4 10.2089 4 7.99979C4 5.79065 5.79086 3.99979 8 3.99979C8.74181 3.99979 9.43645 4.20172 10.032 4.55361Z" fill="#E0E0E0"/>
<circle cx="2" cy="14" r="1" fill="#D9D9D9"/>
<circle cx="14" cy="14" r="1" fill="#D9D9D9"/>
</svg>
