<svg width="16" height="16" viewBox="0 0 16 16" fill="none" xmlns="http://www.w3.org/2000/svg">
<path fill-rule="evenodd" clip-rule="evenodd" d="M4 2H12C13.1046 2 14 2.89543 14 4V12C14 13.1046 13.1046 14 12 14H4C2.89543 14 2 13.1046 2 12V4C2 2.89543 2.89543 2 4 2ZM0 4C0 1.79086 1.79086 0 4 0H12C14.2091 0 16 1.79086 16 4V12C16 14.2091 14.2091 16 12 16H4C1.79086 16 0 14.2091 0 12V4ZM5.5 12L11.5 8L5.5 4V12Z" fill="url(#paint0_linear_161_17)"/>
<defs>
<linearGradient id="paint0_linear_161_17" x1="-4" y1="-0.0623722" x2="-4" y2="16.0624" gradientUnits="userSpaceOnUse">
<stop stop-color="#FF5F5F"/>
<stop offset="0.5" stop-color="#E1DA5B"/>
<stop offset="1" stop-color="#5FFF97"/>
</linearGradient>
</defs>
</svg>
